<svg xmlns="http://www.w3.org/2000/svg" xmlns:xlink="http://www.w3.org/1999/xlink" width="500" zoomAndPan="magnify" viewBox="0 0 375 374.999991" height="500" preserveAspectRatio="xMidYMid meet" version="1.0"><defs><g/><clipPath id="id1"><path d="M 1 53.203125 L 120 53.203125 L 120 321.703125 L 1 321.703125 Z M 1 53.203125 " clip-rule="nonzero"/></clipPath><clipPath id="id2"><path d="M 255 53.203125 L 374 53.203125 L 374 321.703125 L 255 321.703125 Z M 255 53.203125 " clip-rule="nonzero"/></clipPath></defs><g clip-path="url(#id1)"><path fill="rgb(61.178589%, 89.019775%, 49.01886%)" d="M 84.113281 53.414062 L 1.40625 187.769531 L 84.113281 322.113281 L 119.335938 300.457031 L 49.945312 187.769531 L 119.335938 75.09375 Z M 84.113281 53.414062 " fill-opacity="1" fill-rule="nonzero"/></g><g clip-path="url(#id2)"><path fill="rgb(98.81897%, 45.098877%, 11.759949%)" d="M 290.878906 322.113281 L 373.59375 187.769531 L 290.878906 53.414062 L 255.652344 75.074219 L 325.046875 187.769531 L 255.652344 300.441406 Z M 290.878906 322.113281 " fill-opacity="1" fill-rule="nonzero"/></g><g fill="rgb(98.81897%, 45.098877%, 11.759949%)" fill-opacity="1"><g transform="translate(144.747621, 267.944927)"><g><path d="M 11.878906 -3.800781 C 11.878906 -1.1875 13.066406 0 15.679688 0 L 72.703125 0 C 95.035156 0 106.917969 -11.878906 106.917969 -34.214844 L 106.917969 -155.625 C 106.917969 -177.957031 95.035156 -190.074219 72.703125 -190.074219 L 15.679688 -190.074219 C 13.066406 -190.074219 11.878906 -188.648438 11.878906 -186.273438 Z M 44.191406 -31.363281 L 44.191406 -158.710938 L 66.050781 -158.710938 C 72.226562 -158.710938 75.554688 -155.386719 75.554688 -148.96875 L 75.554688 -40.867188 C 75.554688 -34.449219 72.226562 -31.363281 66.050781 -31.363281 Z M 44.191406 -31.363281 "/></g></g></g><g fill="rgb(61.178589%, 89.019775%, 49.01886%)" fill-opacity="1"><g transform="translate(113.489155, 297.105127)"><g><path d="M 44.085938 -31.285156 L 100.496094 -31.285156 C 103.105469 -31.285156 104.289062 -29.863281 104.289062 -27.496094 L 104.289062 -3.792969 C 104.289062 -1.183594 103.105469 0 100.496094 0 L 15.644531 0 C 13.273438 0 11.851562 -1.183594 11.851562 -3.792969 L 11.851562 -185.824219 C 11.851562 -188.195312 13.273438 -189.617188 15.644531 -189.617188 L 40.292969 -189.617188 C 42.902344 -189.617188 44.085938 -188.195312 44.085938 -185.824219 Z M 44.085938 -31.285156 "/></g></g></g></svg>