<svg xmlns="http://www.w3.org/2000/svg" xmlns:xlink="http://www.w3.org/1999/xlink" width="500" zoomAndPan="magnify" viewBox="0 0 375 374.999991" height="500" preserveAspectRatio="xMidYMid meet" version="1.0"><defs><g/><clipPath id="id1"><path d="M 1 53.203125 L 120 53.203125 L 120 321.703125 L 1 321.703125 Z M 1 53.203125 " clip-rule="nonzero"/></clipPath><clipPath id="id2"><path d="M 255 53.203125 L 374 53.203125 L 374 321.703125 L 255 321.703125 Z M 255 53.203125 " clip-rule="nonzero"/></clipPath></defs><g clip-path="url(#id1)"><path fill="#ecc30b" d="M 84.113281 53.414062 L 1.40625 187.769531 L 84.113281 322.113281 L 119.335938 300.457031 L 49.945312 187.769531 L 119.335938 75.09375 Z M 84.113281 53.414062 " fill-opacity="1" fill-rule="nonzero"/></g><g clip-path="url(#id2)"><path fill="#ff5400" d="M 290.878906 322.113281 L 373.59375 187.769531 L 290.878906 53.414062 L 255.652344 75.074219 L 325.046875 187.769531 L 255.652344 300.441406 Z M 290.878906 322.113281 " fill-opacity="1" fill-rule="nonzero"/></g><g fill="#ff5400" fill-opacity="1"><g transform="translate(108.428918, 285.374981)"><g><path d="M 45.570312 -32.339844 L 103.878906 -32.339844 C 106.574219 -32.339844 107.796875 -30.871094 107.796875 -28.417969 L 107.796875 -3.917969 C 107.796875 -1.226562 106.574219 0 103.878906 0 L 16.167969 0 C 13.71875 0 12.25 -1.226562 12.25 -3.917969 L 12.25 -192.074219 C 12.25 -194.527344 13.71875 -195.996094 16.167969 -195.996094 L 41.648438 -195.996094 C 44.34375 -195.996094 45.570312 -194.527344 45.570312 -192.074219 Z M 45.570312 -32.339844 "/></g></g></g><g fill="#ecc30b" fill-opacity="1"><g transform="translate(266.471531, 89.624937)"><g><path d="M -45.570312 32.339844 L -103.878906 32.339844 C -106.574219 32.339844 -107.796875 30.871094 -107.796875 28.417969 L -107.796875 3.917969 C -107.796875 1.226562 -106.574219 0 -103.878906 0 L -16.167969 0 C -13.71875 0 -12.25 1.226562 -12.25 3.917969 L -12.25 192.074219 C -12.25 194.527344 -13.71875 195.996094 -16.167969 195.996094 L -41.648438 195.996094 C -44.34375 195.996094 -45.570312 194.527344 -45.570312 192.074219 Z M -45.570312 32.339844 "/></g></g></g></svg>